<?xml version="1.0" encoding="utf-8"?>
<!-- Generator: Adobe Illustrator 23.0.6, SVG Export Plug-In . SVG Version: 6.00 Build 0)  -->
<svg version="1.1" id="Calque_1" xmlns="http://www.w3.org/2000/svg" xmlns:xlink="http://www.w3.org/1999/xlink" x="0px" y="0px"
	 viewBox="0 0 500 500" style="enable-background:new 0 0 500 500;" xml:space="preserve">
<style type="text/css">
	.st0{fill:#A0C49D;}
</style>
<g>
	<path class="st0" d="M105.06,442.04c-0.25,0-0.5,0-0.75,0c-0.87-1.03-1.68-2.12-2.62-3.08c-12.8-12.83-25.61-25.65-38.44-38.45
		c-2.01-2.01-4.15-3.89-6.81-6.37c20.55-20.52,40.65-40.61,61.04-60.97c-8.62-8.61-17.27-17.24-25.68-25.64
		c5.24-5.23,10.41-10.4,15.98-15.96c6.3,6.41,12.93,13.15,19.78,20.11c16.16-18.78,32.11-37.32,48.28-56.11
		c-2-1.74-3.85-3.38-5.73-4.99c-36.76-31.62-73.51-63.25-110.32-94.81c-1.98-1.7-2.79-3.39-2.78-6.02
		c0.1-29.25,0.06-58.49,0.06-87.74c0-1.21,0-2.42,0-3.97c1.73,0,3.08,0,4.42,0c28.62,0,57.25,0.06,85.87-0.07
		c3.53-0.02,5.9,0.9,8.27,3.67c29.72,34.77,59.58,69.41,89.41,104.09c1.27,1.48,2.57,2.94,4.05,4.63c1.46-1.67,2.61-2.97,3.74-4.28
		c30.24-35.15,60.49-70.28,90.67-105.48c1.62-1.88,3.24-2.62,5.72-2.61c30.62,0.08,61.24,0.05,91.87,0.05c0,32,0,64,0,96
		c-1.01,0.65-2.11,1.19-3.02,1.97c-29.94,25.71-59.86,51.45-89.77,77.18c-8.6,7.4-17.2,14.82-25.97,22.38
		c16.19,18.81,32.2,37.42,48.66,56.55c7-7.06,13.66-13.77,19.7-19.86c5.18,5.15,10.37,10.31,15.78,15.69
		c-8.38,8.32-17.06,16.93-25.9,25.71c0.96,1.02,1.78,1.93,2.65,2.79c12.71,12.72,25.42,25.46,38.16,38.15
		c6.54,6.51,13.14,12.96,19.71,19.44c0,0.25,0,0.5,0,0.75c-0.94,0.79-1.94,1.5-2.8,2.36c-14.04,14.01-28.07,28.04-42.08,42.08
		c-0.86,0.86-1.58,1.87-2.36,2.8c-0.25,0-0.5,0-0.75,0c-0.38-0.48-0.72-1-1.15-1.43c-19.08-19.1-38.17-38.19-57.27-57.27
		c-0.59-0.59-1.28-1.09-2.58-2.18c-8.74,8.82-17.4,17.56-25.94,26.18c-5.11-5.12-10.22-10.24-15.97-16
		c6.6-6.54,13.39-13.25,20.26-20.05c-20.43-17.57-40.77-35.06-61.34-52.75c-20.64,17.76-41.06,35.32-61.78,53.14
		c6.98,6.96,13.68,13.64,19.89,19.83c-5.35,5.36-10.53,10.55-16.31,16.34c-8.39-8.45-17.06-17.18-25.88-26.07
		c-9.14,9.16-18.33,18.34-27.49,27.55C126.68,420.21,115.88,431.13,105.06,442.04z M370.99,183.97c-0.13-0.34-0.25-0.69-0.38-1.03
		c-18.17,0-36.34,0-54.81,0c0-18.47,0-36.52,0-55.59c-57.84,67.24-115.03,133.73-171.91,199.86c9.5,9.51,18.66,18.68,27.99,28.02
		C238.1,298.28,304.54,241.13,370.99,183.97z M418.56,80.54c-20.63,0-40.72-0.02-60.82,0.07c-1.04,0-2.33,0.79-3.06,1.61
		c-4.8,5.42-9.6,10.86-14.12,16.51c-1.19,1.49-2.02,3.73-2.04,5.63c-0.15,17.36-0.09,34.73-0.08,52.09c0,1.32,0.12,2.64,0.18,3.96
		c0.9,0.11,1.39,0.23,1.88,0.23c18.49,0.01,36.97,0.05,55.46-0.06c1.43-0.01,3.08-0.86,4.23-1.81c5.49-4.53,10.93-9.14,16.17-13.95
		c1.18-1.08,2.09-3.08,2.12-4.67c0.19-10.24,0.1-20.48,0.1-30.73C418.56,99.95,418.56,90.47,418.56,80.54z M159.51,160.42
		c0.08-1.04,0.17-1.66,0.17-2.28c0.01-18.24,0.05-36.48-0.06-54.71c-0.01-1.45-0.72-3.16-1.65-4.29
		c-4.44-5.4-9.16-10.58-13.58-15.99c-1.57-1.92-3.18-2.69-5.67-2.67c-18.49,0.1-36.98,0.06-55.46,0.06c-1.18,0-2.37,0-3.69,0
		c0,20.56-0.03,40.54,0.07,60.52c0.01,1.14,0.81,2.58,1.69,3.37c5.59,4.99,11.27,9.89,17.03,14.67c1.04,0.86,2.64,1.47,3.98,1.48
		c18.24,0.1,36.48,0.07,54.71,0.05C157.78,160.64,158.5,160.52,159.51,160.42z M190.53,238.47c14.7-17.09,29.17-33.91,43.7-50.8
		c-17.26-20.06-34.29-39.85-51.33-59.65c-0.3,0.14-0.6,0.28-0.91,0.42c0,18.17,0,36.35,0,54.84c-18.47,0-36.52,0-55.62,0
		C148.19,202.05,169.23,220.16,190.53,238.47z M354.37,327.36c-16.39-19.05-32.74-38.05-49.16-57.13
		c-13.11,11.29-25.91,22.31-38.87,33.47c20.32,17.47,40.27,34.63,60.04,51.64C335.78,345.94,344.95,336.78,354.37,327.36z
		 M133.79,350.68c-14.57,14.57-29.35,29.34-43.54,43.54c4.81,4.87,9.93,10.06,14.75,14.94c14.44-14.45,29.14-29.16,43.59-43.61
		C143.66,360.59,138.51,355.42,133.79,350.68z M349.53,365.34c14.76,14.76,29.47,29.47,43.74,43.74c4.89-4.9,10.04-10.07,14.6-14.65
		c-14.46-14.45-29.23-29.21-43.68-43.66C359.45,355.47,354.34,360.55,349.53,365.34z"/>
</g>
</svg>
